<?xml version="1.0" encoding="UTF-8"?>
<svg id="_레이어_1" data-name="레이어 1" xmlns="http://www.w3.org/2000/svg" viewBox="0 0 271.02 243.96">
  <defs>
    <style>
      .cls-1 {
        fill: #848484;
      }
    </style>
  </defs>
  <path class="cls-1" d="M252.09,0H18.94C8.49,0,0,8.49,0,18.93v206.09c0,10.44,8.49,18.94,18.94,18.94h233.16c10.44,0,18.93-8.49,18.93-18.94V18.93c0-10.44-8.49-18.93-18.93-18.93ZM270.64,18.93v8.11h-26.67V.39h8.12c10.23,0,18.55,8.32,18.55,18.55ZM108.65,108.66h26.67v26.65h-26.67v-26.65ZM108.25,135.3h-26.67v-26.65h26.67v26.65ZM135.31,108.24h-26.67v-26.65h26.67v26.65ZM135.71,81.59h26.67v26.65h-26.67v-26.65ZM135.31,135.72v26.65h-26.67v-26.65h26.67ZM135.71,135.72h26.67v26.65h-26.67v-26.65ZM135.71,135.3v-26.65h26.67v26.65h-26.67ZM162.77,108.66h26.67v26.65h-26.67v-26.65ZM162.77,108.24v-26.65h26.67v26.65h-26.67ZM162.77,81.18v-26.65h26.67v26.65h-26.67ZM162.38,81.18h-26.67v-26.65h26.67v26.65ZM135.31,81.18h-26.67v-26.65h26.67v26.65ZM108.25,81.18h-26.67v-26.65h26.67v26.65ZM108.25,81.59v26.65h-26.67v-26.65h26.67ZM81.19,108.24h-26.67v-26.65h26.67v26.65ZM81.19,108.66v26.65h-26.67v-26.65h26.67ZM81.19,135.72v26.65h-26.67v-26.65h26.67ZM81.58,135.72h26.67v26.65h-26.67v-26.65ZM108.25,162.79v26.65h-26.67v-26.65h26.67ZM108.65,162.79h26.67v26.65h-26.67v-26.65ZM135.71,162.79h26.67v26.65h-26.67v-26.65ZM162.77,162.79h26.67v26.65h-26.67v-26.65ZM162.77,162.37v-26.65h26.67v26.65h-26.67ZM189.84,135.72h26.67v26.65h-26.67v-26.65ZM189.84,135.3v-26.65h26.67v26.65h-26.67ZM189.84,108.24v-26.65h26.67v26.65h-26.67ZM189.84,81.18v-26.65h26.67v26.65h-26.67ZM189.84,54.11v-26.65h26.67v26.65h-26.67ZM189.44,54.11h-26.67v-26.65h26.67v26.65ZM162.38,54.11h-26.67v-26.65h26.67v26.65ZM135.31,54.11h-26.67v-26.65h26.67v26.65ZM108.25,54.11h-26.67v-26.65h26.67v26.65ZM81.19,54.11h-26.67v-26.65h26.67v26.65ZM81.19,54.53v26.65h-26.67v-26.65h26.67ZM54.12,81.18h-26.67v-26.65h26.67v26.65ZM54.12,81.59v26.65h-26.67v-26.65h26.67ZM54.12,108.66v26.65h-26.67v-26.65h26.67ZM54.12,135.72v26.65h-26.67v-26.65h26.67ZM54.12,162.79v26.65h-26.67v-26.65h26.67ZM54.52,162.79h26.67v26.65h-26.67v-26.65ZM81.19,189.85v26.65h-26.67v-26.65h26.67ZM81.58,189.85h26.67v26.65h-26.67v-26.65ZM108.65,189.85h26.67v26.65h-26.67v-26.65ZM135.71,189.85h26.67v26.65h-26.67v-26.65ZM162.77,189.85h26.67v26.65h-26.67v-26.65ZM189.84,189.85h26.67v26.65h-26.67v-26.65ZM189.84,189.43v-26.65h26.67v26.65h-26.67ZM216.9,162.79h26.67v26.65h-26.67v-26.65ZM216.9,162.37v-26.65h26.67v26.65h-26.67ZM216.9,135.3v-26.65h26.67v26.65h-26.67ZM216.9,108.24v-26.65h26.67v26.65h-26.67ZM216.9,81.18v-26.65h26.67v26.65h-26.67ZM216.9,54.11v-26.65h26.67v26.65h-26.67ZM216.9,27.05V.39h26.67v26.66h-26.67ZM216.51,27.05h-26.67V.39h26.67v26.66ZM189.44,27.05h-26.67V.39h26.67v26.66ZM162.38,27.05h-26.67V.39h26.67v26.66ZM135.31,27.05h-26.67V.39h26.67v26.66ZM108.25,27.05h-26.67V.39h26.67v26.66ZM81.19,27.05h-26.67V.39h26.67v26.66ZM54.12,27.05h-26.67V.39h26.67v26.66ZM54.12,27.47v26.65h-26.67v-26.65h26.67ZM27.06,54.11H.39v-26.65h26.67v26.65ZM27.06,54.53v26.65H.39v-26.65h26.67ZM27.06,81.59v26.65H.39v-26.65h26.67ZM27.06,108.66v26.65H.39v-26.65h26.67ZM27.06,135.72v26.65H.39v-26.65h26.67ZM27.06,162.79v26.65H.39v-26.65h26.67ZM27.06,189.85v26.65H.39v-26.65h26.67ZM27.46,189.85h26.67v26.65h-26.67v-26.65ZM54.12,216.91v26.66h-26.67v-26.66h26.67ZM54.52,216.91h26.67v26.66h-26.67v-26.66ZM81.58,216.91h26.67v26.66h-26.67v-26.66ZM108.65,216.91h26.67v26.66h-26.67v-26.66ZM135.71,216.91h26.67v26.66h-26.67v-26.66ZM162.77,216.91h26.67v26.66h-26.67v-26.66ZM189.84,216.91h26.67v26.66h-26.67v-26.66ZM216.9,216.91h26.67v26.66h-26.67v-26.66ZM216.9,216.5v-26.65h26.67v26.65h-26.67ZM243.97,189.85h26.67v26.65h-26.67v-26.65ZM243.97,189.43v-26.65h26.67v26.65h-26.67ZM243.97,162.37v-26.65h26.67v26.65h-26.67ZM243.97,135.3v-26.65h26.67v26.65h-26.67ZM243.97,108.24v-26.65h26.67v26.65h-26.67ZM243.97,81.18v-26.65h26.67v26.65h-26.67ZM243.97,54.11v-26.65h26.67v26.65h-26.67ZM18.94.39h8.12v26.66H.39v-8.11C.39,8.71,8.71.39,18.94.39ZM.39,225.03v-8.11h26.67v26.66h-8.12c-10.23,0-18.55-8.32-18.55-18.55ZM252.09,243.58h-8.12v-26.66h26.67v8.11c0,10.23-8.32,18.55-18.55,18.55Z"/>
</svg>